<?xml version="1.0" standalone="no"?>
<!DOCTYPE svg PUBLIC "-//W3C//DTD SVG 20010904//EN"
 "http://www.w3.org/TR/2001/REC-SVG-20010904/DTD/svg10.dtd">
<svg version="1.0" xmlns="http://www.w3.org/2000/svg"
 width="400.000000pt" height="400.000000pt" viewBox="0 0 400.000000 400.000000"
 preserveAspectRatio="xMidYMid meet">
<metadata>
Created by potrace 1.14, written by Peter Selinger 2001-2017
</metadata>
<g transform="translate(0.000000,400.000000) scale(0.100000,-0.100000)"
fill="#000000" stroke="none">
<path d="M2515 3110 c-62 -25 -89 -101 -59 -166 26 -56 242 -268 354 -346 180
-127 456 -268 525 -268 38 0 83 26 100 60 19 37 19 64 -1 105 -14 29 -37 44
-171 110 -169 82 -289 156 -398 245 -69 57 -170 158 -212 213 -37 48 -91 67
-138 47z"/>
<path d="M1296 3004 c-166 -175 -314 -281 -573 -406 -121 -59 -143 -74 -157
-102 -20 -42 -20 -57 -2 -101 17 -39 60 -65 108 -65 44 0 309 130 435 213 54
36 134 94 179 130 97 79 236 225 259 274 38 80 -13 163 -102 163 -47 0 -48 -1
-147 -106z"/>
<path d="M1017 2304 c-97 -18 -251 -67 -295 -94 -46 -28 -68 -82 -53 -131 22
-72 93 -98 174 -64 20 8 39 15 42 15 3 0 5 -364 5 -809 l0 -809 -42 -6 c-24
-3 -86 -10 -138 -16 -414 -45 -628 -89 -687 -143 -30 -27 -17 -48 46 -76 511
-220 3351 -220 3862 0 63 28 76 49 46 76 -59 54 -273 98 -687 143 -52 6 -114
13 -137 16 l-43 6 0 809 c0 445 2 809 5 809 3 0 22 -7 42 -15 82 -34 152 -8
174 65 27 88 -48 149 -252 206 -214 59 -530 39 -739 -48 -95 -40 -120 -67
-120 -133 0 -29 8 -45 35 -72 32 -32 38 -35 82 -30 27 3 86 19 133 35 47 17
109 35 138 40 l52 9 0 -821 0 -821 -660 0 -660 0 0 823 c0 651 3 822 13 822
30 -1 176 -43 225 -65 79 -36 126 -33 168 9 39 39 45 89 17 137 -27 45 -159
100 -321 134 -92 19 -317 18 -425 -1z"/>
<path d="M1927 1663 c-44 -7 -148 -83 -199 -147 -109 -136 -171 -318 -172
-501 -1 -163 26 -231 117 -292 59 -40 122 -54 272 -60 289 -13 431 43 482 192
25 71 22 242 -6 350 -45 170 -151 342 -255 411 -74 49 -139 62 -239 47z"/>
</g>
</svg>
